<?xml version="1.0" encoding="UTF-8"?>
<!DOCTYPE svg PUBLIC "-//W3C//DTD SVG 1.1//EN" "http://www.w3.org/Graphics/SVG/1.1/DTD/svg11.dtd">
<!-- Creator: CorelDRAW 2019 (64-Bit) -->
<svg xmlns="http://www.w3.org/2000/svg" xml:space="preserve" width="2249px" height="720px" version="1.1" style="shape-rendering:geometricPrecision; text-rendering:geometricPrecision; image-rendering:optimizeQuality; fill-rule:evenodd; clip-rule:evenodd"
viewBox="0 0 2249 719.95"
 xmlns:xlink="http://www.w3.org/1999/xlink"
 xmlns:xodm="http://www.corel.com/coreldraw/odm/2003">
 <defs>
  <style type="text/css">
   <![CDATA[
    .fil0 {fill:#1756C2;fill-rule:nonzero}
    .fil2 {fill:#D60F27;fill-rule:nonzero}
    .fil1 {fill:#EFCF00;fill-rule:nonzero}
   ]]>
  </style>
 </defs>
 <g id="Layer_x0020_1">
  <metadata id="CorelCorpID_0Corel-Layer"/>
  <path id="path6131" class="fil0" d="M425.26 0.05c-31.57,0 -49.97,24.34 -49.97,59.22l0 22.53 0 221.12 0 23.17c0,34.1 18.4,58.81 49.97,58.81 30.97,0 50.18,-24.71 50.18,-58.81l0 -23.17 0 -221.12 0 -22.53c0,-34.88 -19.21,-59.22 -50.18,-59.22z" inkscape:connector-curvature="0"/>
  <g>
   <path id="path6133" class="fil0" d="M660.06 105.71l-23.54 0 0 -14.63c0,-16.42 9.57,-23.34 34.87,-20.47 26.94,2.51 32.99,-14.63 32.99,-28.33 0,-10.59 -3.1,-15.97 -11.27,-25.45 -17.45,-17.3 -61.6,-16.79 -61.6,-16.79 0,0 -40.03,-1.85 -67.17,19.71 -27.03,20.97 -24.67,59.17 -24.67,59.17l0 26.79 -4.33 0c-17.96,0 -37.03,11.19 -37.03,34.13 0,23.12 21.63,33.71 39,33.71l2.36 0 0 159.25c0,27.39 16.79,52.09 49.9,52.09 33.79,0 46.95,-23.93 46.95,-50.55l0 -160.79 23.54 0c13.01,0 38.86,-6.34 38.86,-32.37 0,-27.02 -20.39,-35.47 -38.86,-35.47l0 0zm0 0l0 0 0 0z" inkscape:connector-curvature="0"/>
  </g>
  <g>
   <path id="path6135" class="fil0" d="M942.49 96.89c-16.19,0 -29.15,7.29 -37.63,18.33 -15.58,-10.81 -36.1,-18.33 -60.03,-18.33 -101.98,0 -147.16,76.67 -147.16,150.69 0,79.25 54.89,140.56 147.16,140.56 21.86,0 42.92,-7.28 59.91,-18.47 8.32,11.33 21.35,18.47 37.75,18.47 31.72,0 49.8,-24.44 49.8,-58.95l0 -173.14c0,-33.91 -18.08,-59.16 -49.8,-59.16l0 0zm-145.78 146.87l0 0c0,-63.06 30.61,-74.24 51.15,-74.24 0.82,0 1.85,0 2.57,0 23.62,1.84 42.22,17.59 42.22,76.97 0,58.42 -20.15,70.12 -41.06,71.29 -1.23,0 -1.84,0 -3.16,0 -23.46,0 -51.72,-11.19 -51.72,-74.02l0 0zm0 0l0 0 0 0z" inkscape:connector-curvature="0"/>
  </g>
  <path id="path6137" class="fil0" d="M336.65 309.1c-5.2,-15.6 -89.46,-255.85 -93.65,-267.18 -4.64,-11.4 -8.91,-19.65 -19.09,-26.77 -16.83,-12.76 -52.87,-12 -52.87,-12 0,0 -35.56,-0.83 -52.7,12 -10.02,7.13 -14.29,15.38 -18.7,26.77 -4.27,11.33 -88.53,251.58 -94.34,267.18 -4.72,15.25 -8.81,33.93 0,49.16 9.67,14.26 25.61,26.64 46.22,26.64 20.9,0 39.44,-9.07 47.53,-34.52 7.88,-26.03 12,-38.76 12,-38.76l59.99 0 60.3 0c0,0 3.92,12.73 11.86,38.76 7.95,25.45 26.93,34.52 47.26,34.52 21.38,0 37.73,-12.38 46.19,-26.64 9.15,-15.23 5.6,-33.91 0,-49.16l0 0zm-202.94 -80.22l0 0 37.33 -121.85 37.43 121.85 -74.76 0z" inkscape:connector-curvature="0"/>
  <path id="path6139" class="fil1" d="M2117.92 674.23l-2117.92 0 0 45.72 2117.92 0c64.99,0 119.43,-47.78 129.36,-109.66 -29.13,38.94 -76.52,63.94 -129.36,63.94z" inkscape:connector-curvature="0"/>
  <path id="path6141" class="fil2" d="M2248.9 511.76l0 -36.64 -2117.53 0c-72.29,0 -131.37,59.13 -131.37,131.49l0 36.64 2117.92 0c72.42,0 130.98,-59.22 130.98,-131.49z" inkscape:connector-curvature="0"/>
  <g>
   <path id="path6143" class="fil2" d="M1425.06 93.93c-53.58,0 -105.67,71.74 -124.15,99.5 0.83,-6.32 2.2,-15.97 5.16,-27 3.9,-18.27 7.28,-44.15 -5.16,-59.4 -7.28,-8.83 -18.02,-13.09 -32.43,-13.09 -49.61,0 -98.63,63.29 -119.59,94.26 2.49,-9.06 5.44,-20.39 7.43,-26.93 3.25,-15.23 9.65,-38.98 -0.61,-52.82 -6.12,-8.54 -16.2,-12.38 -30.48,-12.38 -23.34,0 -49.31,10.96 -50.39,10.96l-5.3 2.38 4.84 2.86c0,0 7.15,7.14 1.65,44.95 -9.43,66.46 -31.12,145.7 -39.58,177.13 -4.86,16.03 -4.12,29.12 2.28,37.8 6.75,8.85 19.05,13.92 34.39,13.92 21.38,0 40.83,-7.14 41.91,-8.17l3.16 -0.82 -2.5 -3.22c0,-0.21 -11.17,-16.8 3.55,-49.02 49.59,-110.31 89.69,-154.24 100.89,-161.74 2.65,-1.23 4.19,-2.71 6.1,-2.71 1.23,0 1.84,0.82 1.84,1.44 1.23,0.62 1.44,3.33 1.23,5.81 -4.04,38.34 -20.23,102.37 -30.66,145.19 -2.23,9.79 -4.64,17.75 -5.91,24.44 -3.82,16.41 -2.54,29.13 3.68,37.59 6.2,7 16.21,11.04 30.39,11.04 22.24,0 41.9,-8.17 42.7,-8.31l4.04 -1.64 -3.01 -2.73c0,-1.03 -10.74,-15.03 4.33,-49.14 36.65,-84.86 86.16,-151.16 99.04,-160.81 4.35,-3.06 6.57,-3.45 7.88,-3.45 0.41,0 0.62,0 1.44,1.24 1.02,1.02 1.43,4.66 1.02,9.05 -0.2,1.64 -1.64,6.92 -2.79,14.78 -7.35,29.37 -20.38,90.09 -27.53,132.33 -4.26,25.23 -2.19,44.13 7.15,54.89 7.57,8.69 19.44,13.76 33.85,13.76 25.17,0 48.42,-15.69 49.45,-16.26l3.67 -2.51 -3.37 -2.27c0,0 -17.81,-16.8 -9.07,-66.31 6.2,-33.19 14.21,-71.37 20.24,-99.12 2.87,-13.92 4.72,-25.48 6.26,-31.8l0.41 -2.48c3.22,-15.23 8.09,-43.05 -5.09,-58.81 -6.98,-9.12 -17.51,-12.58 -32.14,-12.58l-0.22 0.2zm0 0l0 0 0 0z" inkscape:connector-curvature="0"/>
  </g>
  <g>
   <path id="path6145" class="fil2" d="M1738.16 96.89c-15.21,0 -27.59,4.07 -36.05,12.28 -6.2,-3.82 -27.32,-15.23 -55.05,-15.23 -15.83,0 -39.09,2.95 -65.2,19.5 -28.98,17.96 -53.43,46.65 -73.36,85.95 -45.1,87.94 -23.48,152.16 -12.15,167.92 9.87,13.7 23.54,19.87 43.27,19.87 27.89,0 64.98,-10.96 121.56,-99.85 -1.64,12.52 -3.51,30.11 -3.51,45.11 0,48.42 34.11,53.64 48.18,53.64 36.43,0 49.14,-17 49.24,-17.58l1.43 -1.84 -1.43 -1.85c-0.41,-0.62 -16.98,-17.53 -6.08,-107.6 10.51,-85.8 40.29,-144.96 40.29,-145.68l1.44 -2.38 -2.53 -1.65c-1.02,-0.41 -25.59,-10.59 -50.02,-10.59l-0.03 -0.02zm-157.4 224.36l0 0c-7.43,0 -11.39,-12.73 -11.39,-26.05 0,-14.43 7.2,-97.51 42.37,-140.12 7.8,-8.29 17.07,-13.52 26.33,-13.52 22.52,0 43.58,24.11 48.8,30.32 -27.3,55.48 -65.65,112.96 -92.93,141.12 -5.01,5.6 -9.86,8.25 -13.18,8.25l0 0zm0 0l0 0 0 0z" inkscape:connector-curvature="0"/>
  </g>
  <g>
   <path id="path6147" class="fil2" d="M2017.71 93.93c-39.39,0 -86.68,65.2 -106.7,95.44 3.3,-13.08 8.17,-32.36 11.91,-50.11 2.58,-13.31 0.82,-23.69 -4.34,-30.67 -6.77,-7.64 -17.94,-11.7 -33.55,-11.7 -22.36,0 -49.35,9.77 -50.32,10.14l-3.92 1.64 3.47 2.96c0,0.41 7.29,10.73 2.79,47.01 -6.26,39.52 -31.4,138.04 -42.01,177.93 -4.87,16.03 -3.68,27.73 2.22,36.04 8.97,12.15 26.41,13.55 38.42,13.55 20.42,0 40.75,-7.15 41.63,-8.17l3.9 -0.83 -2.34 -3.22c-0.15,-0.2 -9.73,-15.47 1.44,-44.97 30.08,-75.95 63.53,-120.31 83.6,-135.54 4.64,-3.24 9.36,-5.23 14,-5.23 11.02,0 18.02,12.37 18.02,12.37l1.64 3.1 2.45 -2.5c10.51,-10.45 29.27,-32.63 36.1,-52.63 4.72,-11.99 10.84,-33.32 1.65,-45.7 -3.82,-6.17 -10.66,-8.9 -20.08,-8.9l0.02 -0.01zm0 0l0 0 0 0z" inkscape:connector-curvature="0"/>
  </g>
  <path id="path6149" class="fil2" d="M2245.15 129.63c-11.04,3.82 -38.18,6.32 -74.61,6.32 -4.11,0 -7.5,0 -9.77,0 1.64,-9.42 8.23,-36.04 15.37,-61.29 4.5,-15.23 3.98,-27.73 -2.44,-35.82 -6.32,-7.74 -16.69,-11.21 -32.44,-11.21 -22.08,0 -53.87,9.88 -55.11,10.45l-4.72 1.44 4.06 3.69c12.2,12.48 -1.03,72.63 -6.71,94.98 -0.62,1.23 -31.63,120.54 -31.63,177.55 0,47.83 26.19,71.54 76.37,71.54 23.41,0 57.54,-6.32 80.49,-26.21 10.02,-8.66 14.43,-21.04 11.78,-34.14 -1.43,-9.4 -6.09,-16.77 -6.09,-17.14l-1.64 -3.47 -2.94 2.73c-0.41,0 -10.74,10.16 -31.37,17.14 -7.78,2.28 -13.9,3.84 -20.22,3.84 -6.63,0 -12.21,-2.73 -17.45,-7.14 -11.61,-11.93 -4.12,-54.52 -1.64,-68.21 3.9,-21.64 13.45,-61.89 15.52,-71.97 3.61,0 11.19,-0.15 20.9,-0.15 8.33,0 15.46,0.15 22.43,0.15 43.19,0.82 55.28,-32.74 55.71,-50.47l0 -4.44 -3.85 1.83z" inkscape:connector-curvature="0"/>
 </g>
</svg>
